<svg xmlns="http://www.w3.org/2000/svg" version="1.1" width="510" height="510">
<path d="M0 0 C2.44302376 1.88283997 4.79989744 3.79435328 7.10546875 5.84375 C10.26927401 8.12430682 13.05704219 8.9591906 16.8125 10 C64.68897279 24.03488275 109.62765022 55.13586296 138.75 95.75 C139.14719238 96.2970459 139.54438477 96.8440918 139.95361328 97.40771484 C142.64719745 101.12815303 145.22793902 104.910233 147.75 108.75 C148.45898438 109.82894531 149.16796875 110.90789062 149.8984375 112.01953125 C150.55070312 113.06496094 151.20296875 114.11039063 151.875 115.1875 C152.45507812 116.11433594 153.03515625 117.04117188 153.6328125 117.99609375 C155.0062301 121.38161616 154.68216793 123.26172949 153.75 126.75 C153.42 127.41 153.09 128.07 152.75 128.75 C152.09 128.75 151.43 128.75 150.75 128.75 C152.08954112 131.58075372 153.47717408 134.38512785 154.875 137.1875 C155.25398438 137.98994141 155.63296875 138.79238281 156.0234375 139.61914062 C157.14184522 141.82799587 158.20578473 143.81319725 159.75 145.75 C162.79381994 146.69549546 162.79381994 146.69549546 165.75 146.75 C169.26044108 149.06333214 170.25968581 153.07279581 171.625 156.875 C172.01244385 157.93908081 172.01244385 157.93908081 172.40771484 159.0246582 C177.65452805 173.67805088 181.23260136 188.39175283 183.75 203.75 C183.93006592 204.79269043 183.93006592 204.79269043 184.11376953 205.85644531 C190.41651798 243.63536374 185.14917969 284.24040749 172.25317383 319.984375 C171.91439209 320.94085938 171.57561035 321.89734375 171.2265625 322.8828125 C170.91799316 323.72730957 170.60942383 324.57180664 170.29150391 325.44189453 C169.69125716 328.00038541 169.81082226 329.31633316 170.75 331.75 C172.48897758 333.701627 172.48897758 333.701627 174.6875 335.625 C191.55016249 352.03191485 201.68287717 374.80165093 202.04223633 398.33398438 C202.10814086 410.46041745 201.87235642 421.27206645 197.75 432.75 C197.37617188 433.80703125 197.00234375 434.8640625 196.6171875 435.953125 C187.39059992 459.78338431 170.19788258 477.44377258 147.3125 488.5 C123.55067868 498.81304855 96.43576271 498.76501009 72.4375 489.4375 C59.43096849 483.59166822 47.66357077 475.80001792 38.3828125 464.8671875 C36.75900239 463.48627271 36.75900239 463.48627271 34.46533203 464.07568359 C31.80623579 464.73603459 29.26083712 465.52662642 26.671875 466.421875 C11.86196355 471.42807643 -2.81732788 475.23482684 -18.25 477.75 C-19.03906738 477.88132324 -19.82813477 478.01264648 -20.64111328 478.14794922 C-58.54506621 484.12836932 -98.55569401 479.00941671 -134.48461914 466.34106445 C-135.44102295 466.00550537 -136.39742676 465.66994629 -137.3828125 465.32421875 C-138.22730957 465.02088623 -139.07180664 464.71755371 -139.94189453 464.4050293 C-142.49146459 463.56799076 -142.49146459 463.56799076 -146.25 463.75 C-147.91386273 465.22539819 -147.91386273 465.22539819 -149.375 467.25 C-159.77272769 479.73606623 -174.94148518 487.85720592 -190.25 492.75 C-191.72339844 493.22953125 -191.72339844 493.22953125 -193.2265625 493.71875 C-210.30764977 498.29631185 -230.60562871 497.66542115 -247.25 491.75 C-248.30832031 491.37617188 -249.36664063 491.00234375 -250.45703125 490.6171875 C-274.72772222 481.20801077 -292.70860009 463.5522303 -303.5 440 C-311.93180609 418.96656021 -314.15558604 394.33745987 -306.25 372.75 C-305.95883301 371.94836426 -305.66766602 371.14672852 -305.36767578 370.32080078 C-302.81699109 363.74933235 -299.63853853 357.77808383 -296.140625 351.671875 C-283.84081538 332.23095017 -283.84081538 332.23095017 -282.15649414 310.44482422 C-283.59741037 306.64677621 -285.23052083 303.0026181 -287.06005859 299.37646484 C-289.02667115 295.03571436 -289.78429408 290.5518984 -290.5625 285.875 C-290.7162207 285.00020996 -290.86994141 284.12541992 -291.02832031 283.22412109 C-291.45568042 280.73557033 -291.8556746 278.24396676 -292.25 275.75 C-292.36714355 275.06502441 -292.48428711 274.38004883 -292.60498047 273.67431641 C-296.68261953 249.26301215 -295.66981343 222.00849931 -291.25 197.75 C-291.08902832 196.85812988 -290.92805664 195.96625977 -290.76220703 195.04736328 C-285.01864399 164.54192612 -273.46651381 134.6410149 -256.25 108.75 C-255.80188965 108.07565918 -255.3537793 107.40131836 -254.89208984 106.70654297 C-239.57516623 83.90480118 -220.63117376 62.80251662 -198.25 46.75 C-197.1878125 45.97785156 -196.125625 45.20570312 -195.03125 44.41015625 C-173.89702511 29.40588251 -150.63402839 17.28846907 -125.625 10.25 C-119.60254884 8.51856371 -115.46815986 6.01119647 -110.78125 1.86328125 C-103.51802274 -4.20061681 -94.78978879 -8.27840027 -86 -11.625 C-85.37528809 -11.8636377 -84.75057617 -12.10227539 -84.10693359 -12.34814453 C-56.40367811 -22.33865361 -23.70632036 -17.0329594 0 0 Z M-181.375 116.5625 C-191.51827779 126.77392041 -199.91045554 138.39908285 -207.25 150.75 C-207.5912793 151.32266602 -207.93255859 151.89533203 -208.28417969 152.48535156 C-226.66771577 183.85171025 -233.57161678 220.77353113 -230.375 256.75 C-230.25741333 258.13167358 -230.25741333 258.13167358 -230.13745117 259.54125977 C-230.05342041 260.41451904 -229.96938965 261.28777832 -229.8828125 262.1875 C-229.80949707 262.96996094 -229.73618164 263.75242187 -229.66064453 264.55859375 C-228.894322 268.64807712 -227.67019187 270.42115419 -224.375 273 C-221.26526886 275.07573558 -221.26526886 275.07573558 -217.25 274.75 C-215.20265664 273.71607625 -215.20265664 273.71607625 -213.25 272.3125 C-207.35671868 268.27237941 -201.2768099 267.89714181 -194.25 268.75 C-189.52618656 270.49377686 -185.42588459 272.96607694 -181.25 275.75 C-180.82702637 274.89768799 -180.40405273 274.04537598 -179.96826172 273.16723633 C-178.38315937 269.98251416 -176.77975828 266.80729883 -175.17089844 263.63452148 C-174.47941065 262.26462025 -173.79279439 260.89224798 -173.11132812 259.51733398 C-172.12625512 257.53206625 -171.1235274 255.55658715 -170.1171875 253.58203125 C-169.82004852 252.97349808 -169.52290955 252.3649649 -169.21676636 251.73799133 C-166.22656305 245.95196049 -161.65493557 241.64453517 -155.49609375 239.2578125 C-148.12144471 237.59050054 -139.52863432 237.3859702 -132.92578125 241.4296875 C-126.97615119 246.11727482 -123.83655805 251.34606242 -122.25 258.75 C-120.96753697 270.71965495 -128.7623774 282.00400986 -134.08154297 292.27612305 C-135.11827041 294.28363016 -136.1454466 296.29580664 -137.171875 298.30859375 C-137.49573181 298.92625107 -137.81958862 299.54390839 -138.15325928 300.18028259 C-138.9131801 301.67402219 -139.59005918 303.20947549 -140.25 304.75 C-139.92 305.41 -139.59 306.07 -139.25 306.75 C-130.1290589 297.11981461 -130.1290589 297.11981461 -121.5625 287 C-107.12863773 269.16838549 -107.12863773 269.16838549 -94.9375 267.41796875 C-88.10221769 267.09756489 -81.74656731 268.69726688 -76.4375 273.0625 C-70.91170968 279.85132811 -67.87629666 285.79452849 -68.25 294.625 C-69.63487321 304.71918696 -76.73767898 311.65552511 -83.46484375 318.75390625 C-85.9948818 321.43738443 -88.32487352 324.24031099 -90.625 327.125 C-95.22078176 332.83666402 -100.19386488 338.14646818 -105.20703125 343.48828125 C-108.64948087 347.1604402 -111.98121785 350.92255326 -115.25 354.75 C-114.85167969 355.34425781 -114.45335937 355.93851562 -114.04296875 356.55078125 C-108.59098023 365.08029127 -104.75647898 374.45947607 -106.25 384.75 C-108.04068977 392.19743286 -110.56731177 399.04224644 -114.25 405.75 C-108.83468267 408.24993788 -103.47565301 409.89888801 -97.6875 411.3125 C-96.80634521 411.52938477 -95.92519043 411.74626953 -95.01733398 411.96972656 C-69.29254191 418.14386404 -42.11759096 418.4445048 -16.25 412.75 C-15.90560942 409.57277072 -15.90560942 409.57277072 -18.48046875 407.40234375 C-19.46394816 406.49500793 -20.44976555 405.59020189 -21.4375 404.6875 C-28.32400302 398.03337378 -32.40138455 392.11506331 -32.875 382.25 C-32.57515872 375.18707198 -30.55383879 369.42585281 -25.79296875 364.12890625 C-23.38669609 361.98929178 -21.1278499 360.70379341 -18.12109375 359.56640625 C-14.91411627 358.00022304 -14.91411627 358.00022304 -14.4375 354.4921875 C-14.375625 353.21601563 -14.31375 351.93984375 -14.25 350.625 C-13.58334121 342.69927338 -11.44164513 337.30323826 -5.30078125 332.09765625 C-3.67114493 330.90435258 -1.96665368 329.81432528 -0.25 328.75 C-0.58 327.63625 -0.91 326.5225 -1.25 325.375 C-3.38512408 316.58695305 -2.88477754 308.66603598 1.75 300.75 C5.62249319 296.09320439 10.75528566 292.80499085 16.75 291.75 C18.9597857 291.87186318 21.16824341 292.01948558 23.375 292.1875 C26.72222811 292.4001109 26.72222811 292.4001109 29.75 291.75 C31.83357466 289.45134666 32.91712456 287.16800804 34.2421875 284.37109375 C37.21453141 279.20414359 42.46452041 276.67059579 48.078125 275.09765625 C56.88913774 273.72671196 63.69289923 276.21444389 70.8046875 281.3125 C71.44664062 281.786875 72.08859375 282.26125 72.75 282.75 C73.74 283.41 74.73 284.07 75.75 284.75 C76.24628906 284.27949219 76.74257813 283.80898438 77.25390625 283.32421875 C83.94032629 277.19605769 89.78976345 274.21746953 98.9375 273.5 C105.51396268 273.93124345 111.7207959 276.13734489 117.75 278.75 C130.42747745 243.10454038 121.40538874 197.35711555 105.9375 163.9375 C97.0447856 145.45264422 84.81871316 129.54788427 70.75 114.75 C70.13125 114.06679687 69.5125 113.38359375 68.875 112.6796875 C64.40838843 107.91397248 59.35057652 103.97460932 54.1875 100 C53.46675293 99.44449463 52.74600586 98.88898926 52.00341797 98.31665039 C47.74113862 95.09139229 43.4509097 92.29503916 38.75 89.75 C38.73541748 90.64307861 38.72083496 91.53615723 38.70581055 92.45629883 C38.64472923 95.77217278 38.57057522 99.08721899 38.48754883 102.40258789 C38.45430999 103.83704628 38.42627465 105.27163513 38.40356445 106.70629883 C38.36999729 108.76960807 38.31768587 110.83172303 38.26171875 112.89453125 C38.23553467 114.13565674 38.20935059 115.37678223 38.18237305 116.65551758 C37.75 119.75 37.75 119.75 36.40551758 121.6159668 C34.75 122.75 34.75 122.75 31.75 123.75 C31.5753603 126.83261456 31.46905933 129.91395833 31.375 133 C31.32472656 133.87269531 31.27445312 134.74539062 31.22265625 135.64453125 C31.20332031 136.48886719 31.18398438 137.33320313 31.1640625 138.203125 C31.1326416 138.97817383 31.1012207 139.75322266 31.06884766 140.55175781 C31.58549355 143.10827486 31.58549355 143.10827486 34.74121094 144.43945312 C37.75 146.75 37.75 146.75 38.31149292 148.70404053 C38.5118129 151.24213908 38.52896217 153.72001501 38.4765625 156.265625 C38.47805801 157.66032013 38.47805801 157.66032013 38.47958374 159.08319092 C38.47490584 161.05017643 38.45546859 163.01717425 38.42236328 164.98388672 C38.37537624 167.97604112 38.38121404 170.96460411 38.39453125 173.95703125 C38.38336942 175.87241686 38.36914445 177.78778756 38.3515625 179.703125 C38.35338531 180.58985901 38.35520813 181.47659302 38.35708618 182.39019775 C38.2036531 189.21014817 36.48085505 194.44046376 32.109375 199.73828125 C24.77310354 205.77467937 18.20754412 207.46377691 8.75 206.75 C5.625 206.25 5.625 206.25 3.75 205.75 C3.54246094 206.33007812 3.33492187 206.91015625 3.12109375 207.5078125 C0.17248368 214.98420457 -3.61320121 218.65184685 -10.5 222.625 C-17.07936776 224.59881033 -23.58730278 224.24128963 -30.25 222.75 C-30.54132813 223.41386719 -30.83265625 224.07773438 -31.1328125 224.76171875 C-34.6078646 232.24728696 -38.10168798 237.16673183 -46.14453125 240.23828125 C-54.05090116 242.15986652 -61.09015104 241.24784652 -68.125 237.234375 C-73.47738679 233.49557541 -75.97167673 228.74558756 -78.25 222.75 C-78.96800781 222.90726563 -79.68601563 223.06453125 -80.42578125 223.2265625 C-88.372208 224.69934422 -94.90108002 224.31093827 -102.01953125 220.3046875 C-107.58624186 216.42456346 -110.44616852 212.27307212 -112.25 205.75 C-112.56686433 202.7123548 -112.62117356 199.68525613 -112.6640625 196.6328125 C-112.68342865 195.77565643 -112.7027948 194.91850037 -112.7227478 194.03536987 C-112.78221256 191.31534572 -112.82879569 188.59527848 -112.875 185.875 C-112.9132103 184.02341972 -112.95226378 182.17185663 -112.9921875 180.3203125 C-113.08788664 175.79701575 -113.17203906 171.27363584 -113.25 166.75 C-114.06114258 166.55809082 -114.87228516 166.36618164 -115.70800781 166.16845703 C-117.31434082 165.77956299 -117.31434082 165.77956299 -118.953125 165.3828125 C-120.01176758 165.12902832 -121.07041016 164.87524414 -122.16113281 164.61376953 C-130.77011296 162.20635792 -137.32627784 157.22520132 -142.25 149.75 C-145.95440081 142.42858313 -146.84978834 135.96691692 -146.859375 127.8359375 C-146.87591125 126.74028473 -146.89244751 125.64463196 -146.90948486 124.51577759 C-146.95766458 121.05212633 -146.97926955 117.58891315 -147 114.125 C-147.0281847 111.76169706 -147.05811558 109.39841427 -147.08984375 107.03515625 C-147.16341526 101.27351625 -147.21523305 95.51199794 -147.25 89.75 C-156.96456116 89.75 -174.61258725 109.92164641 -181.375 116.5625 Z " fill="#020201" transform="translate(310.25,16.25)"/>
<path d="M0 0 C1.13501953 0.88945313 1.13501953 0.88945313 2.29296875 1.796875 C12.87202443 10.60972001 20.37807746 22.09007499 25 35 C25.35304199 35.94576904 25.70608398 36.89153809 26.06982422 37.8659668 C30.19343847 50.69060879 29.53408169 63.84631305 29.5 77.1875 C29.48797042 81.97305513 29.50153127 86.75751103 29.53125 91.54296875 C29.51993042 92.63457809 29.50861084 93.72618744 29.49694824 94.85087585 C29.5037561 95.86325821 29.51056396 96.87564056 29.51757812 97.91870117 C29.51439575 98.80611496 29.51121338 99.69352875 29.50793457 100.60783386 C30.16414071 103.79796674 31.50005798 104.97798288 34 107 C34.99 107.33 35.98 107.66 37 108 C37 114.6 37 121.2 37 128 C34.525 128.99 34.525 128.99 32 130 C29.04372844 132.95627156 29.70223057 136.15124877 29.69140625 140.11328125 C29.6662391 141.7701857 29.64084119 143.42708666 29.61523438 145.08398438 C29.58652521 147.69750001 29.56251112 150.31095476 29.54370117 152.92456055 C29.52199847 155.44612785 29.48254745 157.96696702 29.44140625 160.48828125 C29.44129044 161.26553055 29.44117462 162.04277985 29.4410553 162.84358215 C29.35826629 167.39885263 28.8565003 170.39817957 26 174 C22.33218328 176.44521115 19.26546767 176.72237759 15 176 C12.56880377 174.12984906 11.35930827 172.71861655 10 170 C9.89619025 168.32612221 9.85406157 166.64824377 9.84228516 164.97119141 C9.83202301 163.92315338 9.82176086 162.87511536 9.81118774 161.7953186 C9.80388641 160.65887909 9.79658508 159.52243958 9.7890625 158.3515625 C9.76099679 155.96093062 9.73233235 153.57030571 9.703125 151.1796875 C9.66182138 147.39843925 9.62494657 143.61732149 9.59863281 139.8359375 C9.57107902 136.19503691 9.52520793 132.55473409 9.4765625 128.9140625 C9.4716832 127.21547592 9.4716832 127.21547592 9.46670532 125.48257446 C9.45013885 124.42823212 9.43357239 123.37388977 9.41650391 122.28759766 C9.40841705 121.36097321 9.4003302 120.43434875 9.39199829 119.47964478 C8.92210054 116.50723514 8.11762561 115.12281784 6 113 C1.43253326 112.39714698 1.43253326 112.39714698 -2.69470215 114.10940552 C-4.650698 116.94247152 -4.3790198 119.26990665 -4.38476562 122.68701172 C-4.3901384 123.36216827 -4.39551117 124.03732483 -4.40104675 124.73294067 C-4.41082475 126.1979575 -4.41376881 127.66303224 -4.41069031 129.12807846 C-4.40621329 131.44871394 -4.42020892 133.76858636 -4.43908691 136.08914185 C-4.47588563 141.01774872 -4.48957759 145.94627598 -4.5 150.875 C-4.5120829 156.58007543 -4.53366661 162.28477992 -4.58000183 167.98968887 C-4.59355921 170.27256128 -4.58940314 172.55496332 -4.58459473 174.83786011 C-4.59393833 176.24331253 -4.6041079 177.64875978 -4.61523438 179.05419922 C-4.61728882 180.27759003 -4.61934326 181.50098083 -4.62145996 182.76144409 C-5.0371398 186.31774529 -5.84802583 188.16569352 -8 191 C-11.16818756 193.11212504 -13.13219252 193.33156464 -16.8671875 193.55859375 C-20.29354799 192.66121362 -21.77351506 190.68846538 -24 188 C-24.61904907 184.73020935 -24.61904907 184.73020935 -24.61181641 180.97827148 C-24.61748123 180.29146301 -24.62314606 179.60465454 -24.62898254 178.89703369 C-24.64243426 176.63782363 -24.62157922 174.3802325 -24.6015625 172.12109375 C-24.60706459 170.54597375 -24.61519094 168.97086093 -24.62582397 167.39576721 C-24.64868695 163.2559878 -24.64449737 159.11673693 -24.63201904 154.97692871 C-24.6136958 148.34773805 -24.62365872 141.7188557 -24.65787888 135.08973885 C-24.66398291 132.77625716 -24.65072506 130.46343871 -24.63589478 128.15000916 C-24.63884275 126.73078236 -24.64249742 125.31155679 -24.64697266 123.89233398 C-24.64100571 122.03631813 -24.64100571 122.03631813 -24.63491821 120.14280701 C-25.02690152 116.76841821 -25.61827885 115.37697759 -28 113 C-30.83568858 112.33740346 -33.04239226 112.71832307 -36 113 C-38.56791156 115.56791156 -38.24221614 117.26641622 -38.26786804 120.76678467 C-38.26374405 121.57303284 -38.25962006 122.37928101 -38.25537109 123.20996094 C-38.25899155 124.05892944 -38.262612 124.90789795 -38.26634216 125.78259277 C-38.27324662 127.63015415 -38.27573964 129.47773597 -38.27439499 131.32530975 C-38.27343206 134.25088855 -38.28634515 137.17609755 -38.30337524 140.10162354 C-38.34971223 148.42090963 -38.37424694 156.74015971 -38.38085938 165.05957031 C-38.38587707 170.14541695 -38.41014434 175.23088022 -38.44618607 180.31659698 C-38.45598208 182.25421089 -38.4583171 184.19187756 -38.45301437 186.12950897 C-38.44593576 188.84424185 -38.46324352 191.55783563 -38.48583984 194.27246094 C-38.47766739 195.07061218 -38.46949493 195.86876343 -38.46107483 196.69110107 C-38.53794898 201.89255568 -39.56452636 204.8682542 -43 209 C-46.46030991 210.73015495 -50.22544297 210.61789902 -54 210 C-57.47683471 206.69700703 -58.95339663 204.20461929 -59.13803101 199.43212891 C-59.14958507 197.8636356 -59.15570271 196.29509707 -59.15771484 194.7265625 C-59.16279556 193.87116882 -59.16787628 193.01577515 -59.17311096 192.13446045 C-59.18382515 190.27379384 -59.19244121 188.41311427 -59.19923019 186.5524292 C-59.21099262 183.61121819 -59.23043702 180.67015578 -59.25234985 177.72900391 C-59.3140663 169.36560981 -59.36809171 161.00223128 -59.40136719 152.63867188 C-59.4222555 147.5269374 -59.457509 142.41547409 -59.50212479 137.30389404 C-59.51632947 135.35181866 -59.52501724 133.39969531 -59.52817917 131.4475708 C-59.53306126 128.72256882 -59.55614745 125.9982931 -59.58349609 123.2734375 C-59.58048996 122.46090515 -59.57748383 121.6483728 -59.5743866 120.81121826 C-59.57612679 118.34141128 -59.57612679 118.34141128 -60 115 C-63.70415293 112.53056471 -65.62144505 112.53086911 -70 113 C-72.47679116 115.32494587 -72.97103053 116.75061628 -73.36508179 120.14280701 C-73.36110382 121.38015091 -73.35712585 122.61749481 -73.35302734 123.89233398 C-73.35518753 124.57739014 -73.35734772 125.26244629 -73.35957336 125.96826172 C-73.36265502 127.45184318 -73.35907014 128.93545026 -73.34955978 130.41900444 C-73.33580269 132.76912409 -73.34226908 135.1184011 -73.35440063 137.46852112 C-73.38533886 144.14842288 -73.38048639 150.82812775 -73.36035156 157.50805664 C-73.34942622 161.59776018 -73.36263945 165.68682986 -73.39024734 169.77644539 C-73.39568293 171.33252633 -73.39163651 172.88867088 -73.37784958 174.44470024 C-73.3587705 176.6232589 -73.37021504 178.79974776 -73.38818359 180.97827148 C-73.38460342 182.83548073 -73.38460342 182.83548073 -73.38095093 184.73020935 C-74.16955332 188.89557336 -75.74414268 190.37630376 -79 193 C-82.08804049 193.8384056 -84.8737752 193.64277519 -88 193 C-91.03215675 190.80168636 -91.81654398 189.55036806 -93 186 C-93.09430711 184.48404506 -93.13324908 182.96431256 -93.13803101 181.44543457 C-93.14348434 180.51167496 -93.14893768 179.57791534 -93.15455627 178.61585999 C-93.1555986 177.59342697 -93.15664093 176.57099396 -93.15771484 175.51757812 C-93.16279556 174.43931259 -93.16787628 173.36104706 -93.17311096 172.25010681 C-93.18382035 169.9059989 -93.1924383 167.56188072 -93.19923019 165.21775818 C-93.2109996 161.51169446 -93.23044601 157.80574831 -93.25234985 154.09973145 C-93.3140427 143.56180172 -93.36832444 133.02389659 -93.40136719 122.48583984 C-93.4222616 116.04378708 -93.45752001 109.60194924 -93.50212479 103.16001892 C-93.51632395 100.70078554 -93.525016 98.24151416 -93.52817917 95.78224182 C-93.53306407 92.34873812 -93.5561588 88.91580956 -93.58349609 85.48242188 C-93.58048996 84.45998886 -93.57748383 83.43755585 -93.5743866 82.38414001 C-93.58547958 81.4503804 -93.59657257 80.51662079 -93.60800171 79.55456543 C-93.61131186 78.74267509 -93.614622 77.93078476 -93.61803246 77.09429169 C-94.0991185 74.45654268 -94.85345994 73.574425 -97 72 C-100.5 71.41666667 -100.5 71.41666667 -104 72 C-107.13664732 75.0786781 -107.38653835 77.57998919 -107.43237305 81.87011719 C-107.45216721 83.05103943 -107.47196136 84.23196167 -107.49235535 85.44866943 C-107.50194023 87.35353119 -107.50194023 87.35353119 -107.51171875 89.296875 C-107.52966995 90.60078186 -107.54762115 91.90468872 -107.56611633 93.24810791 C-107.61356989 96.70695993 -107.6434088 100.16574694 -107.66955566 103.62481689 C-107.69938497 107.15756062 -107.74590706 110.69008043 -107.79101562 114.22265625 C-107.87699545 121.14830983 -107.94436422 128.07403801 -108 135 C-114.55397045 135.15761723 -117.29188753 133.42703112 -122 129 C-126.11261566 124.08607241 -127.12476843 119.79452812 -127.17700195 113.47167969 C-127.18357315 112.81258606 -127.19014435 112.15349243 -127.19691467 111.47442627 C-127.21663715 109.2902412 -127.22831704 107.10612538 -127.23828125 104.921875 C-127.24235678 104.17106911 -127.2464323 103.42026321 -127.25063133 102.64670563 C-127.27150236 98.66128313 -127.28579125 94.67589501 -127.29516602 90.69042969 C-127.30614359 86.61241311 -127.34043792 82.5349554 -127.38033772 78.45713425 C-127.40676412 75.29110858 -127.4148813 72.12520975 -127.41844749 68.95908356 C-127.42325844 67.45867452 -127.43471113 65.95826896 -127.45348549 64.45796967 C-127.60978347 51.12290953 -125.62582249 38.69232505 -119.25 26.75 C-118.90493408 26.08726074 -118.55986816 25.42452148 -118.2043457 24.74169922 C-109.66484828 8.74056149 -97.94163447 -1.8009016 -82 -10 C-81.20851562 -10.42152344 -80.41703125 -10.84304687 -79.6015625 -11.27734375 C-53.78888079 -23.99176876 -21.79612959 -17.31644147 0 0 Z " fill="#FDE3C0" transform="translate(305,32)"/>
<path d="M0 0 C4.30750548 0.35895879 5.74111588 1.30361588 8.75 4.3125 C10.28695052 7.38640103 9.97132846 9.90936907 9.75 13.3125 C8.53515625 16.53013611 8.53515625 16.53013611 6.8125 19.85522461 C6.50038574 20.46762497 6.18827148 21.08002533 5.86669922 21.71098328 C5.19191633 23.03072325 4.51071232 24.34719618 3.82373047 25.66062737 C2.7346013 27.7443039 1.66398581 29.83659561 0.59765625 31.93202209 C-2.05337357 37.13287223 -4.73312812 42.3187626 -7.41601562 47.50323486 C-9.68539534 51.89026527 -11.94163035 56.28355432 -14.18017578 60.68640327 C-15.23110592 62.74041582 -16.30063531 64.78398046 -17.37109375 66.8278656 C-18.01920664 68.0982058 -18.66639076 69.36902041 -19.3125 70.64038086 C-19.88097656 71.73845566 -20.44945312 72.83653046 -21.03515625 73.96788025 C-22.53790582 78.10514142 -22.54203686 80.93398118 -22.25 85.3125 C-20.71026248 88.40960563 -18.37390062 90.75054969 -15.25 92.3125 C-10.08939456 92.70197966 -7.43845327 92.30338391 -3.25 89.3125 C-0.8841757 87.08280374 1.30947604 84.71329515 3.5 82.3125 C4.12052246 81.64041504 4.74104492 80.96833008 5.38037109 80.27587891 C9.5925219 75.67811637 13.57679168 70.93861527 17.46875 66.06640625 C21.12470792 61.6529639 25.05655445 57.50169955 28.96484375 53.3125 C31.71651381 50.36119357 34.38254115 47.34365936 37.0234375 44.29296875 C49.09483604 30.44636454 49.09483604 30.44636454 51.73828125 29.90625 C57.77324412 29.66282293 57.77324412 29.66282293 60.453125 31.4453125 C62.6879202 33.89844976 63.70527245 36.07395305 64.3125 39.3125 C63.17632038 45.37212465 58.68330185 49.64134523 54.5625 54 C51.01663691 57.79097427 47.61796851 61.62929357 44.375 65.6875 C40.30924144 70.74597519 35.95566466 75.46761399 31.48364258 80.16455078 C28.20873814 83.63220976 25.33679974 87.17061797 22.5625 91.0625 C19.80203663 94.65344176 18.03889815 95.91071326 13.5625 96.6875 C12.76457031 96.73648438 11.96664062 96.78546875 11.14453125 96.8359375 C7.82497714 97.49659917 6.24757994 99.0509977 3.75 101.3125 C2.05204024 103.79443199 2.05204024 103.79443199 0.68798828 106.61254883 C0.14457794 107.67077347 -0.3988324 108.72899811 -0.95870972 109.81929016 C-1.52663239 110.95786972 -2.09455505 112.09644928 -2.6796875 113.26953125 C-3.27427765 114.44585617 -3.8688678 115.62218109 -4.48147583 116.83415222 C-5.73510636 119.31909356 -6.9794032 121.80844635 -8.21777344 124.30102539 C-9.80134927 127.48557452 -11.41181175 130.65563378 -13.03010368 133.82265186 C-14.57582689 136.85914048 -16.09495444 139.90869908 -17.6171875 142.95703125 C-18.19725555 144.08953812 -18.77732361 145.22204498 -19.37496948 146.38887024 C-22.63746826 152.62307002 -22.63746826 152.62307002 -23.22705078 159.4597168 C-22.45263381 162.40309796 -22.45263381 162.40309796 -20.25 164.3125 C-16.8788837 165.1469592 -16.8788837 165.1469592 -13.25 164.3125 C-11.86089367 162.78056099 -11.86089367 162.78056099 -10.78295898 160.77661133 C-10.14546219 159.68444809 -10.14546219 159.68444809 -9.49508667 158.57022095 C-7.61550719 155.16197149 -5.79273142 151.73450719 -4.03515625 148.26171875 C-3.65693222 147.52226517 -3.27870819 146.78281158 -2.88902283 146.02095032 C-1.69345687 143.6823462 -0.50267657 141.34135082 0.6875 139 C2.25709431 135.91953879 3.82885109 132.84019043 5.40234375 129.76171875 C5.77765228 129.02702362 6.15296082 128.29232849 6.53964233 127.53536987 C9.51033546 121.7381952 12.58011222 116.00365937 15.75 110.3125 C20.56730878 113.04960726 23.95979205 115.87147473 25.75 121.3125 C27.90721276 135.86267994 17.59697955 149.9984283 11.37133789 162.5847168 C10.25477582 164.84940969 9.14466986 167.11729786 8.04125977 169.38842773 C-4.09748247 194.36095455 -17.59223828 214.64573851 -44.80078125 224.50390625 C-45.60902344 224.77074219 -46.41726562 225.03757812 -47.25 225.3125 C-48.08917969 225.61027344 -48.92835937 225.90804687 -49.79296875 226.21484375 C-68.81382459 232.03645971 -89.2671563 228.49662566 -106.58959961 219.51098633 C-126.57301187 208.65576883 -139.68930953 192.03980691 -146.25 170.3125 C-154.10555981 137.98543189 -139.26696696 111.93630342 -124.25 84.3125 C-123.56292969 84.73402344 -122.87585938 85.15554688 -122.16796875 85.58984375 C-121.26691406 86.13769531 -120.36585937 86.68554688 -119.4375 87.25 C-118.54417969 87.79527344 -117.65085937 88.34054687 -116.73046875 88.90234375 C-112.29274304 91.42520829 -109.37330508 91.21843534 -104.375 90.875 C-97.82370483 90.80773824 -97.82370483 90.80773824 -95.4296875 92.9140625 C-94.25 95 -94.25 95 -93.25 97.20703125 C-91.33912313 101.23032279 -87.89935091 103.52656769 -83.921875 105.421875 C-76.64546055 107.84734648 -69.12645364 106.87893205 -62.28515625 103.67578125 C-56.93942808 100.09486161 -53.92696693 95.44226094 -51.08203125 89.8046875 C-50.66927444 89.00441132 -50.25651764 88.20413513 -49.83125305 87.37960815 C-43.70239272 75.41471331 -37.788655 63.33750533 -31.81835938 51.29296875 C-31.2188915 50.08369658 -31.2188915 50.08369658 -30.60731316 48.84999466 C-28.55332004 44.70475872 -26.50305655 40.5577323 -24.45874023 36.40771484 C-22.4523612 32.33551852 -20.43620768 28.268294 -18.41355324 24.20415878 C-17.6520345 22.66943421 -16.89413376 21.13290855 -16.14005089 19.59451675 C-15.09048797 17.45427828 -14.02854734 15.32061548 -12.96362305 13.18798828 C-12.66068329 12.56256134 -12.35774353 11.9371344 -12.04562378 11.29275513 C-10.00178832 7.24264972 -7.58686675 4.3664022 -4.25 1.3125 C-3.25 0.3125 -3.25 0.3125 0 0 Z " fill="#FDE3C1" transform="translate(163.25,268.6875)"/>
<path d="M0 0 C5.04428802 2.59257431 8.97649234 5.53664756 12.97607422 9.57202148 C13.52834686 10.11743088 14.08061951 10.66284027 14.64962769 11.22477722 C16.45901415 13.01598427 18.25722106 14.81793094 20.0546875 16.62109375 C21.32313437 17.88497149 22.59194993 19.14847932 23.8611145 20.41163635 C26.51712056 23.05872619 29.1673993 25.71139268 31.81396484 28.36791992 C35.17628124 31.74166727 38.55408402 35.09939939 41.93671989 38.45275784 C44.56240192 41.05991979 47.17852122 43.67652178 49.79211807 46.29579353 C51.03196568 47.53579274 52.2748475 48.77276695 53.5210228 50.00640678 C70.10488367 66.4469459 83.79345642 85.96705211 84.37109375 110.21337891 C84.40695197 132.92507726 77.14461571 153.74262369 61.015625 170.17578125 C44.8677777 185.77866516 24.07369085 192.3125 2.06689453 192.3125 C-27.66218674 191.78173125 -48.05609524 171.15009442 -67.625 151.4375 C-68.8317946 150.22567574 -70.03882439 149.01408566 -71.24609375 147.80273438 C-74.16677407 144.87117529 -77.08427747 141.93648979 -80 139 C-77.7469945 136.68387151 -75.62268814 134.72487677 -73 132.8125 C-69.15177523 129.70657239 -67.68040517 125.53709396 -66 121 C-65.24976563 121.05800781 -64.49953125 121.11601562 -63.7265625 121.17578125 C-55.11518314 121.55537606 -48.61867051 120.20663144 -42.1171875 114.28515625 C-37.29339259 108.96033917 -35.83746174 104.11842476 -35 97 C-34.21496094 96.85304688 -33.42992187 96.70609375 -32.62109375 96.5546875 C-24.43413012 94.80679588 -19.35024854 92.59439424 -14.390625 85.79296875 C-12.66398138 82.32513114 -12.20892127 78.9880525 -11.8125 75.1875 C-11.73064453 74.49462891 -11.64878906 73.80175781 -11.56445312 73.08789062 C-11.36575707 71.39313016 -11.18140797 69.69669806 -11 68 C-10.00419922 67.65388672 -10.00419922 67.65388672 -8.98828125 67.30078125 C-3.5009982 65.2740913 0.23865122 63.51361854 4 59 C7.64713844 60.50660572 9.68696531 62.657157 12.3125 65.5625 C15.98865873 69.41874116 15.98865873 69.41874116 20.8125 71.3125 C24.03085641 71.24098892 24.03085641 71.24098892 26.4375 69.4375 C28.48511308 66.24322359 28.5271313 64.75739866 28 61 C26.15372665 58.59291196 24.43187418 56.65938931 22.26953125 54.578125 C21.38837898 53.69903473 21.38837898 53.69903473 20.48942566 52.80218506 C19.24635338 51.56815955 17.99601372 50.34141748 16.73901367 49.12158203 C14.82085471 47.25811649 12.92772948 45.37182709 11.03710938 43.48046875 C9.82432092 42.28243095 8.61017163 41.08576887 7.39453125 39.890625 C6.82974564 39.32917786 6.26496002 38.76773071 5.68305969 38.18927002 C0.93694024 33.61131336 -3.04826688 31.71275343 -9.75 31.5 C-10.71421875 31.4484375 -11.6784375 31.396875 -12.671875 31.34375 C-22.96439049 33.3732601 -30.2335945 42.99030885 -37.14501953 50.20654297 C-38.50186135 51.61771565 -39.86801191 53.01991924 -41.234375 54.421875 C-42.42885254 55.66855957 -42.42885254 55.66855957 -43.64746094 56.94042969 C-47.73789322 60.52146816 -51.56324778 61.43902756 -56.99609375 61.3359375 C-60.35216602 60.7733211 -62.37040086 59.10367931 -65 57 C-63.42510971 53.2026841 -61.04146641 50.78784118 -58.15478516 47.89599609 C-57.66348618 47.40119247 -57.17218719 46.90638885 -56.66600037 46.39659119 C-55.0453397 44.76714911 -53.41749739 43.14510746 -51.7890625 41.5234375 C-50.65777812 40.39080544 -49.52679074 39.25787667 -48.39608765 38.12466431 C-46.02706341 35.75269367 -43.65446505 33.3843726 -41.27929688 31.01855469 C-38.23715414 27.98780613 -35.20407792 24.94816786 -32.17362404 21.90573692 C-29.84037243 19.5652537 -27.50237245 17.22956067 -25.16291428 14.89528275 C-24.04271037 13.77641173 -22.92398674 12.65605662 -21.80678177 11.53419113 C-20.2439816 9.96630445 -18.67489997 8.40498443 -17.10400391 6.84521484 C-16.21290924 5.95571136 -15.32181458 5.06620789 -14.40371704 4.14974976 C-10.06755796 0.27173218 -5.82894705 -1.17174745 0 0 Z " fill="#FEBC85" transform="translate(413,305)"/>
<path d="M0 0 C8.87424536 2.53549867 16.87016983 6.71856559 25 11 C25.66483398 11.34836914 26.32966797 11.69673828 27.01464844 12.05566406 C61.81540846 30.46139937 89.59656996 57.93766224 110.87890625 90.828125 C113.71575626 95.09104353 113.71575626 95.09104353 117 99 C119.01225492 99.15970277 121.02473819 99.31817535 123.0390625 99.44921875 C125.6976963 100.19596649 126.35483405 101.31482033 127.8125 103.625 C128.57763074 105.06478994 129.30777337 106.52377426 130 108 C130.3196875 108.65355469 130.639375 109.30710937 130.96875 109.98046875 C132.27265031 112.81162265 133 114.85600035 133 118 C132.01 118.66 131.02 119.32 130 120 C129.30574139 126.43960284 130.87166656 131.21938543 133.125 137.1875 C136.27990249 146.05570589 138.49111038 154.96885181 140.375 164.1875 C140.62523926 165.40397217 140.87547852 166.62044434 141.13330078 167.8737793 C143.08584859 177.72268009 144.14315211 187.36168207 144.23828125 197.3984375 C144.24812042 198.26302078 144.25795959 199.12760406 144.26809692 200.01838684 C144.55087604 231.3467743 141.07269988 259.18081916 131 289 C128.65511604 287.01243169 126.32323772 285.01271363 124 283 C122.81639893 281.97688721 122.81639893 281.97688721 121.60888672 280.93310547 C119.0094628 278.64406052 116.47277196 276.2972678 113.9375 273.9375 C112.60041992 272.78217773 112.60041992 272.78217773 111.23632812 271.60351562 C105.08953833 265.78049167 105.08953833 265.78049167 104.83618164 260.74243164 C105.33592172 257.39616826 106.0732703 254.25186365 107 251 C107.28361919 249.64949623 107.55814057 248.29698698 107.81640625 246.94140625 C108.31337531 244.69073485 108.81337102 242.4407296 109.31640625 240.19140625 C113.32544488 218.65183427 112.59636007 194.37445601 108 173 C107.8443457 172.19933105 107.68869141 171.39866211 107.52832031 170.57373047 C98.0526717 121.86208777 67.91671499 78.51158176 26.99145508 50.89306641 C21.26351227 46.97451054 21.26351227 46.97451054 15.16015625 43.7109375 C11.90281467 41.1309816 11.89135436 37.96386102 11.4375 34.0625 C11.20982267 32.51592627 10.97540642 30.97033009 10.734375 29.42578125 C10.61642578 28.66861816 10.49847656 27.91145508 10.37695312 27.13134766 C8.68122656 17.54346367 4.20532341 8.69100171 0 0 Z " fill="#9AE49C" transform="translate(336,46)"/>
<path d="M0 0 C-0.45890625 0.84820312 -0.9178125 1.69640625 -1.390625 2.5703125 C-6.12572529 11.53331917 -10.8238068 21.06439487 -11.0859375 31.3828125 C-11.33234524 39.40054125 -11.33234524 39.40054125 -14.55224609 42.48876953 C-18.73915877 45.6430023 -23.28429148 48.18918152 -27.84814453 50.75195312 C-37.01103556 56.06630517 -44.9273351 63.33145906 -52.55175781 70.61914062 C-53.93734332 71.94025857 -55.33941785 73.24401771 -56.7421875 74.546875 C-84.9648248 101.54244111 -102.22810518 138.92502136 -109 177 C-109.226875 178.20914063 -109.45375 179.41828125 -109.6875 180.6640625 C-112.6204335 199.36151354 -111.58025277 219.21517714 -110 238 C-112.1484375 239.07421875 -114.296875 240.1484375 -116.4453125 241.22265625 C-123.19306079 245.91719061 -126.75325172 252.7432417 -130.375 259.9375 C-131.04982422 261.24944336 -131.04982422 261.24944336 -131.73828125 262.58789062 C-132.83402695 264.72109769 -133.92098356 266.85829644 -135 269 C-135.66 269 -136.32 269 -137 269 C-142.67154497 249.20814838 -144.38469407 230.00468463 -144.375 209.5 C-144.37672211 208.56954865 -144.37844421 207.63909729 -144.38021851 206.68045044 C-144.3767378 190.05202967 -143.38323783 173.80378158 -139.3125 157.625 C-139.05267334 156.5719165 -138.79284668 155.51883301 -138.52514648 154.43383789 C-123.81133043 96.53560535 -86.77132949 47.28004244 -36 16 C-4.93382742 -2.46691371 -4.93382742 -2.46691371 0 0 Z " fill="#C6F3AE" transform="translate(176,47)"/>
<path d="M0 0 C6.07541107 1.47461434 12.09216484 2.93912727 18 5 C47.81774322 14.36513957 83.39472886 13.78785063 113.32421875 5.8671875 C118.94224059 4.54178809 118.94224059 4.54178809 122 5 C124.198622 6.76264791 126.02920655 8.44544231 127.95703125 10.46875 C128.77877083 11.30110168 128.77877083 11.30110168 129.61711121 12.15026855 C131.36100503 13.92211014 133.08669954 15.71054789 134.8125 17.5 C135.99298124 18.70556344 137.17460944 19.91000493 138.35742188 21.11328125 C141.25174216 24.06267591 144.12986235 27.02707505 147 30 C131.81057761 37.78439758 114.66473476 40.32627032 98 43 C97.1970752 43.13422363 96.39415039 43.26844727 95.56689453 43.40673828 C60.15695304 49.1904434 20.02449466 43.9773181 -13 30 C-13.33 29.34 -13.66 28.68 -14 28 C-13.10101672 25.85360483 -12.09076657 23.75354141 -11.03515625 21.6796875 C-10.72299667 21.06102814 -10.4108371 20.44236877 -10.08921814 19.80496216 C-9.0877371 17.8244403 -8.07528921 15.84975918 -7.0625 13.875 C-6.38273532 12.53552556 -5.70368935 11.19568613 -5.02539062 9.85546875 C-3.35858787 6.56603209 -1.68190292 3.2817464 0 0 Z " fill="#C6F3AE" transform="translate(188,436)"/>
<path d="M0 0 C5.04428802 2.59257431 8.97649234 5.53664756 12.97607422 9.57202148 C13.52834686 10.11743088 14.08061951 10.66284027 14.64962769 11.22477722 C16.45901415 13.01598427 18.25722106 14.81793094 20.0546875 16.62109375 C21.32313437 17.88497149 22.59194993 19.14847932 23.8611145 20.41163635 C26.51712056 23.05872619 29.1673993 25.71139268 31.81396484 28.36791992 C35.17628124 31.74166727 38.55408402 35.09939939 41.93671989 38.45275784 C44.56240192 41.05991979 47.17852122 43.67652178 49.79211807 46.29579353 C51.03196568 47.53579274 52.2748475 48.77276695 53.5210228 50.00640678 C70.10488367 66.4469459 83.79345642 85.96705211 84.37109375 110.21337891 C84.40695197 132.92507726 77.14461571 153.74262369 61.015625 170.17578125 C49.82845588 180.98540174 32.80038525 191.09138045 16.8125 191.1875 C15.884375 191.125625 14.95625 191.06375 14 191 C16.23205392 189.27889818 18.49223804 187.67589265 20.84765625 186.125 C37.14918387 175.34974966 49.11248669 161.4342268 56 143 C56.391875 141.9996875 56.78375 140.999375 57.1875 139.96875 C63.96242131 119.45579382 61.55208011 95.92952354 52.25 76.75 C46.84101585 66.24222883 40.03889499 57.74554705 31.578125 49.5390625 C29.49238403 47.48492367 27.57065709 45.42256019 25.6875 43.1875 C22.29984422 39.24341767 18.70474142 35.52001284 15.0625 31.8125 C14.20241333 30.92050903 14.20241333 30.92050903 13.32495117 30.01049805 C8.40416429 25.05076218 3.46614103 20.68708665 -3.52734375 19.30078125 C-4.65269531 19.30464844 -5.77804687 19.30851562 -6.9375 19.3125 C-8.06027344 19.28800781 -9.18304688 19.26351563 -10.33984375 19.23828125 C-18.83169273 21.00552837 -25.16247564 27.7259879 -31.0625 33.734375 C-32.13854492 34.81322968 -32.13854492 34.81322968 -33.23632812 35.91387939 C-34.73547741 37.41969793 -36.23105214 38.92908313 -37.72314453 40.44189453 C-40.01458903 42.76478927 -42.3168091 45.07656705 -44.62109375 47.38671875 C-46.08135977 48.85614443 -47.54101766 50.32617476 -49 51.796875 C-49.68843994 52.48956482 -50.37687988 53.18225464 -51.08618164 53.89593506 C-52.03352173 54.85768646 -52.03352173 54.85768646 -53 55.83886719 C-53.556875 56.40257019 -54.11375 56.96627319 -54.6875 57.54705811 C-56.10387886 58.98467083 -56.10387886 58.98467083 -57 61 C-59.875 60.25 -59.875 60.25 -63 59 C-64.1953125 56.921875 -64.1953125 56.921875 -65 55 C-58.16464578 48.11830618 -51.3239042 41.24202667 -44.47622299 34.37259865 C-41.29674443 31.18268275 -38.11915321 27.99093308 -34.94580078 24.79492188 C-31.88330199 21.71069315 -28.81594407 18.63137507 -25.74515533 15.55540085 C-24.57443094 14.38098099 -23.40546835 13.20480214 -22.23830414 12.02684402 C-20.60327698 10.37730016 -18.96209844 8.7341206 -17.31933594 7.09228516 C-16.8381279 6.60388657 -16.35691986 6.11548798 -15.86112976 5.61228943 C-11.13684389 0.91677451 -6.79883746 -1.3667169 0 0 Z " fill="#F3A76B" transform="translate(413,305)"/>
<path d="M0 0 C0.78726092 2.20433058 1.12043519 3.56844056 0.484375 5.84765625 C-1.76612054 9.11087479 -5.0179628 10.7263934 -8.375 12.6875 C-19.74809302 19.57878019 -29.93176727 27.42402771 -39.55175781 36.61914062 C-40.93734332 37.94025857 -42.33941785 39.24401771 -43.7421875 40.546875 C-71.9648248 67.54244111 -89.22810518 104.92502136 -96 143 C-96.226875 144.20914063 -96.45375 145.41828125 -96.6875 146.6640625 C-99.6204335 165.36151354 -98.58025277 185.21517714 -97 204 C-97.62938477 204.31179199 -98.25876953 204.62358398 -98.90722656 204.94482422 C-106.83145997 208.93834475 -111.41917062 213.84366642 -115 222 C-115.33 222 -115.66 222 -116 222 C-116.6490968 218.81315572 -117.29367948 215.62541405 -117.9375 212.4375 C-118.11990234 211.54224609 -118.30230469 210.64699219 -118.49023438 209.72460938 C-118.66748047 208.84482422 -118.84472656 207.96503906 -119.02734375 207.05859375 C-119.18968506 206.25736084 -119.35202637 205.45612793 -119.51928711 204.63061523 C-120.66717916 198.34898151 -121.16960322 192.31357718 -121.203125 185.9453125 C-121.20882507 185.08549774 -121.21452515 184.22568298 -121.22039795 183.33981323 C-121.229807 181.52277844 -121.23636556 179.70572691 -121.24023438 177.88867188 C-121.2498493 175.16764677 -121.28087375 172.44740791 -121.3125 169.7265625 C-121.38050653 158.47253883 -120.36937933 147.99608091 -118 137 C-117.82678223 136.1234375 -117.65356445 135.246875 -117.47509766 134.34375 C-111.25124425 103.23151556 -95.4246307 74.38923739 -73.98828125 51.17578125 C-72.39293179 49.42998626 -70.90064268 47.66711898 -69.4375 45.8125 C-66.24862931 42.13303381 -62.74362309 39.10432745 -59 36 C-58.22221191 35.34572021 -58.22221191 35.34572021 -57.42871094 34.67822266 C-43.4010682 22.91940559 -28.52731671 13.81356803 -12 6 C-11.04351562 5.54367188 -10.08703125 5.08734375 -9.1015625 4.6171875 C-3.44624126 2 -3.44624126 2 0 2 C0 1.34 0 0.68 0 0 Z " fill="#9AE49C" transform="translate(163,81)"/>
<path d="M0 0 C5.85359089 2.76583812 11.06134769 5.91115995 16.3125 9.6875 C17.05741699 10.22004395 17.80233398 10.75258789 18.56982422 11.30126953 C68.19500395 47.06106441 102.66746834 100.42820098 113.51293945 160.86621094 C115.56922914 174.09655403 116.43665775 187.24297613 116.4375 200.625 C116.44059677 201.86978119 116.44059677 201.86978119 116.4437561 203.13970947 C116.43506633 222.84107041 114.85404375 243.38755274 108 262 C104.06688956 260.08408569 101.49596904 258.74395355 99 255 C99.03876802 250.54813874 100.03363148 246.33247512 101 242 C101.52703593 239.52214451 102.0477883 237.04294484 102.5625 234.5625 C102.81128906 233.45003906 103.06007813 232.33757812 103.31640625 231.19140625 C107.32544488 209.65183427 106.59636007 185.37445601 102 164 C101.8443457 163.19933105 101.68869141 162.39866211 101.52832031 161.57373047 C92.0526717 112.86208777 61.91671499 69.51158176 20.99145508 41.89306641 C15.26351227 37.97451054 15.26351227 37.97451054 9.16015625 34.7109375 C6.43212895 32.55022148 6.17453882 30.66741595 5.6965332 27.29956055 C5.61105225 26.56133057 5.52557129 25.82310059 5.4375 25.0625 C4.50595799 18.53614864 3.10340508 12.615409 0.76953125 6.41796875 C0 4 0 4 0 0 Z " fill="#C6F3AE" transform="translate(342,55)"/>
<path d="M0 0 C17.00452389 4.59581727 31.33816023 17.82400407 40.26171875 32.64453125 C46.30903542 43.23692999 51.09507027 55.02344518 51.1418457 67.36938477 C51.14888016 68.4171962 51.15591461 69.46500763 51.16316223 70.54457092 C51.16732651 71.66552658 51.17149078 72.78648224 51.17578125 73.94140625 C51.19896612 76.3222746 51.2230829 78.70313402 51.24804688 81.08398438 C51.28324846 84.83233746 51.31256367 88.58035861 51.32592773 92.32885742 C51.34135955 95.95011195 51.38152273 99.57040458 51.42578125 103.19140625 C51.42387283 104.31438614 51.42196442 105.43736603 51.41999817 106.59437561 C51.43648911 107.63903488 51.45298004 108.68369415 51.4699707 109.76000977 C51.47583694 110.6775856 51.48170319 111.59516144 51.48774719 112.5405426 C52.16046714 115.77044396 53.46139006 116.95555856 56 119 C56.99 119.33 57.98 119.66 59 120 C59 126.6 59 133.2 59 140 C56.525 140.99 56.525 140.99 54 142 C51.04372844 144.95627156 51.70223057 148.15124877 51.69140625 152.11328125 C51.6662391 153.7701857 51.64084119 155.42708666 51.61523438 157.08398438 C51.58652521 159.69750001 51.56251112 162.31095476 51.54370117 164.92456055 C51.52199847 167.44612785 51.48254745 169.96696702 51.44140625 172.48828125 C51.44129044 173.26553055 51.44117462 174.04277985 51.4410553 174.84358215 C51.35826629 179.39885263 50.8565003 182.39817957 48 186 C44.91111478 188.05925681 44.29064073 188.2390374 40.8125 188.125 C39.554375 188.08375 38.29625 188.0425 37 188 C37.1619646 187.44571477 37.3239292 186.89142954 37.49080181 186.32034779 C38.05012573 183.77158379 38.13476185 181.4838247 38.14717102 178.87443542 C38.15432632 177.83884491 38.16148163 176.80325439 38.16885376 175.73628235 C38.17154266 174.60538681 38.17423157 173.47449127 38.17700195 172.30932617 C38.18357315 171.11364014 38.19014435 169.9179541 38.19691467 168.68603516 C38.21665162 164.72168616 38.22832144 160.75735046 38.23828125 156.79296875 C38.24233178 155.42258497 38.24644879 154.05220139 38.25063133 152.68181801 C38.26968391 146.23452762 38.28390838 139.7872486 38.2922433 133.33993548 C38.30198187 125.93123349 38.32821178 118.52283297 38.36874419 111.11423701 C38.39908255 105.36874416 38.41372926 99.62333676 38.41702431 93.87776548 C38.41935696 90.45610075 38.42807873 87.03475793 38.45348549 83.61318016 C38.56287894 66.53306146 38.47077984 51.15195879 30.25 35.75 C29.90565918 35.08726074 29.56131836 34.42452148 29.20654297 33.74169922 C22.18954823 20.57246897 12.8821175 9.63384741 0 2 C0 1.34 0 0.68 0 0 Z " fill="#FBD0A3" transform="translate(283,20)"/>
<path d="M0 0 C3.44718564 3.21737327 5.69107423 5.71897835 6.3359375 10.48046875 C6.34882813 11.37378906 6.36171875 12.26710938 6.375 13.1875 C6.40335938 14.06792969 6.43171875 14.94835937 6.4609375 15.85546875 C4.7877231 27.27019412 -3.31766874 39.04048067 -8.37866211 49.2722168 C-9.49522418 51.53690969 -10.60533014 53.80479786 -11.70874023 56.07592773 C-23.84748247 81.04845455 -37.34223828 101.33323851 -64.55078125 111.19140625 C-65.35902344 111.45824219 -66.16726562 111.72507812 -67 112 C-68.25876953 112.44666016 -68.25876953 112.44666016 -69.54296875 112.90234375 C-87.21469137 118.31103742 -106.42209802 115.39857774 -123 108 C-119.98968256 107.06576355 -119.13349732 106.95550089 -116 108 C-91.78861301 109.87154873 -69.00736352 105.24116093 -49.92578125 89.45703125 C-39.83912468 80.58740613 -32.56276853 71.0358434 -26.5625 59 C-25.98338867 57.85732666 -25.40427734 56.71465332 -24.80761719 55.53735352 C-23.54575305 53.04650666 -22.29164026 50.55192725 -21.04150391 48.05517578 C-19.23966462 44.46415754 -17.40611239 40.8901113 -15.56578064 37.31869507 C-14.00034288 34.27647319 -12.44621704 31.22855882 -10.89425659 28.17944336 C-10.13882948 26.69933408 -9.37972309 25.22109618 -8.61672974 23.74487305 C-4.64612103 16.04825346 -0.88835592 8.75871633 0 0 Z " fill="#FACFA2" transform="translate(183,382)"/>
<path d="M0 0 C2.58880891 0.76123456 3.9140254 1.89319165 5.89820862 3.71391296 C6.59366791 4.34904816 7.2891272 4.98418335 8.00566101 5.63856506 C11.1823294 8.64685011 14.31335882 11.6925746 17.40187073 14.79130554 C18.05406082 15.44253891 18.70625092 16.09377228 19.37820435 16.76473999 C20.73977833 18.12563964 22.10011521 19.48777809 23.45924377 20.85112 C25.54639972 22.94368754 27.6389133 25.03079254 29.73194885 27.11747742 C31.05974402 28.44593248 32.38722945 29.77469723 33.71437073 31.10380554 C34.65330421 32.03970268 34.65330421 32.03970268 35.61120605 32.99450684 C40.9722359 38.38493998 40.9722359 38.38493998 41.46827698 43.42802429 C41.41234739 46.84594353 41.11107558 47.59017477 39.03077698 50.55302429 C35.36885428 53.12416151 33.58978721 53.92037244 29.09327698 53.61552429 C27.25672913 52.31886292 27.25672913 52.31886292 25.34913635 50.56034851 C24.64901428 49.92046997 23.94889221 49.28059143 23.22755432 48.62132263 C22.5232428 47.95940918 21.81893127 47.29749573 21.09327698 46.61552429 C20.45212952 46.01983643 19.81098206 45.42414856 19.15040588 44.81040955 C14.98270279 40.90245264 10.8969066 36.91011708 6.81788635 32.90995789 C5.32923478 31.45822853 3.83171929 30.0155358 2.32569885 28.58183289 C0.13252085 26.49202579 -2.02977729 24.37418034 -4.18797302 22.24833679 C-4.86283752 21.6167868 -5.53770203 20.98523682 -6.23301697 20.33454895 C-9.60032713 16.95328463 -11.32500377 14.70568623 -11.4516449 9.82987976 C-11.27927867 6.46340405 -10.84684667 5.52383863 -8.90672302 2.55302429 C-5.83386815 0.56847218 -3.68740748 -0.23677838 0 0 Z " fill="#F1A56A" transform="translate(321.90672302246094,358.3844757080078)"/>
<path d="M0 0 C3 1.375 3 1.375 5 4 C7.48632241 13.64617369 1.28589848 22.33608953 -3.125 30.4375 C-3.89509915 31.88768039 -4.6633427 33.33884776 -5.4296875 34.79101562 C-7.26094937 38.25075917 -9.12240674 41.69309126 -10.99328613 45.13153076 C-11.93074491 46.87146199 -12.84288868 48.62496728 -13.75292969 50.37939453 C-14.26500977 51.3589209 -14.77708984 52.33844727 -15.3046875 53.34765625 C-15.73507324 54.18433838 -16.16545898 55.02102051 -16.60888672 55.88305664 C-18.51903443 58.78984688 -20.55794984 60.68736803 -24 61.43359375 C-27.39456261 61.44022376 -29.46568658 61.31510791 -32.4375 59.5625 C-34.73556242 55.79367762 -35.21478525 52.39727786 -35 48 C-33.82982098 44.22841353 -32.06324338 40.85946982 -30.20703125 37.3828125 C-29.70459396 36.40384003 -29.20215668 35.42486755 -28.68449402 34.41622925 C-27.62295833 32.35864431 -26.5507368 30.30654114 -25.46850586 28.25976562 C-23.81280506 25.12557747 -22.19212784 21.97514556 -20.57617188 18.8203125 C-19.53846109 16.81927263 -18.49881327 14.81923583 -17.45703125 12.8203125 C-16.97144241 11.87970978 -16.48585358 10.93910706 -15.98554993 9.97000122 C-15.52214706 9.0983432 -15.0587442 8.22668518 -14.58129883 7.32861328 C-14.17857254 6.56300079 -13.77584625 5.79738831 -13.36091614 5.00857544 C-9.94892076 -0.02718681 -5.87063746 -0.9881271 0 0 Z " fill="#FBE1BE" transform="translate(114,300)"/>
<path d="M0 0 C3.21524305 1.40844718 5.32183868 3.10344786 7.75 5.625 C8.36359375 6.25664062 8.9771875 6.88828125 9.609375 7.5390625 C10.29773438 8.26222656 10.29773438 8.26222656 11 9 C10.34 9.33 9.68 9.66 9 10 C8.62875 10.928125 8.62875 10.928125 8.25 11.875 C6.32355291 15.14996005 4.60160924 15.75806578 1 17 C-3.01365524 17.24061454 -6.98464106 17.1754283 -11 17 C-10.34 17.94875 -9.68 18.8975 -9 19.875 C-6.38256029 24.51884465 -6.07828019 28.78779683 -7 34 C-8.76520589 38.7424656 -11.3484297 41.98230179 -15.75 44.5 C-21.42613969 46.94031006 -27.1380918 46.623907 -33 45 C-32.505 45.7425 -32.505 45.7425 -32 46.5 C-30.09519706 51.26200735 -30.44294884 55.50475741 -32.1875 60.1875 C-35.24426002 64.93074831 -38.41434574 68.5711117 -44 70 C-49.9644704 70.48100568 -53.74536342 69.88489852 -59 67 C-60.69921875 64.890625 -60.69921875 64.890625 -62 63 C-61.14277344 62.731875 -60.28554688 62.46375 -59.40234375 62.1875 C-50.46163778 59.12326706 -45.12486977 55.82362093 -40.625 47.4375 C-39.82410482 44.3140088 -39.37648817 41.20014947 -39 38 C-38.21496094 37.85304688 -37.42992187 37.70609375 -36.62109375 37.5546875 C-28.43413012 35.80679588 -23.35024854 33.59439424 -18.390625 26.79296875 C-16.66398138 23.32513114 -16.20892127 19.9880525 -15.8125 16.1875 C-15.73064453 15.49462891 -15.64878906 14.80175781 -15.56445312 14.08789062 C-15.36575707 12.39313016 -15.18140797 10.69669806 -15 9 C-14.33613281 8.76925781 -13.67226563 8.53851563 -12.98828125 8.30078125 C-7.5009982 6.2740913 -3.76134878 4.51361854 0 0 Z " fill="#E69957" transform="translate(417,364)"/>
<path d="M0 0 C0 12.45237397 -0.08866921 24.9049016 -0.18390274 37.35684681 C-0.2234397 42.60941148 -0.25560365 47.86180661 -0.27099609 53.11450195 C-0.28615082 58.19506865 -0.32056761 63.27517416 -0.36830902 68.35553551 C-0.38312616 70.29034097 -0.39104121 72.22521222 -0.39188385 74.16007423 C-0.39425186 76.86999261 -0.42131491 79.57863241 -0.45410156 82.28833008 C-0.4490712 83.08491028 -0.44404083 83.88149048 -0.43885803 84.70220947 C-0.53588457 89.89328728 -1.57504778 92.87537554 -5 97 C-7.40545638 98.20272819 -8.94996953 98.10071472 -11.625 98.0625 C-12.44226563 98.05347656 -13.25953125 98.04445313 -14.1015625 98.03515625 C-14.72804687 98.02355469 -15.35453125 98.01195312 -16 98 C-15.01 97.505 -15.01 97.505 -14 97 C-12.64141685 92.96873291 -12.84028381 88.83027813 -12.82641602 84.62304688 C-12.819729 83.7803273 -12.81304199 82.93760773 -12.80615234 82.0693512 C-12.79211979 80.2420139 -12.78022005 78.41465926 -12.77020454 76.58729553 C-12.75377578 73.69578724 -12.73053853 70.80440794 -12.70530701 67.91296387 C-12.6345724 59.69285516 -12.57434775 51.47269491 -12.52319336 43.25244141 C-12.49141684 38.22273334 -12.45014928 33.19317577 -12.40299797 28.16358948 C-12.38697548 26.24665529 -12.37465506 24.32968648 -12.36609077 22.41270447 C-12.35394759 19.73396495 -12.32980336 17.05558007 -12.30297852 14.37695312 C-12.30238937 13.58410416 -12.30180023 12.79125519 -12.30119324 11.97438049 C-12.21057859 5.15147345 -12.21057859 5.15147345 -10 2 C-6.76837449 -0.30830393 -3.8810735 -0.17641243 0 0 Z " fill="#F5CA9E" transform="translate(267,144)"/>
<path d="M0 0 C4.875 3.75 4.875 3.75 6 6 C6.61194358 11.38510351 5.13868109 13.70692264 2 18 C0.30671301 19.92794724 -1.42467391 21.82292349 -3.1875 23.6875 C-6.73336309 27.47847427 -10.13203149 31.31679357 -13.375 35.375 C-17.44075856 40.43347519 -21.79433534 45.15511399 -26.26635742 49.85205078 C-29.54126186 53.31970976 -32.41320026 56.85811797 -35.1875 60.75 C-37.94796337 64.34094176 -39.71110185 65.59821326 -44.1875 66.375 C-44.98542969 66.42398438 -45.78335938 66.47296875 -46.60546875 66.5234375 C-50.00177314 67.1993741 -51.47346023 68.62216353 -54 71 C-55.63724869 73.49954439 -56.91839891 76.13554101 -58.20703125 78.828125 C-58.76241829 79.95163361 -58.76241829 79.95163361 -59.32902527 81.09783936 C-60.50163283 83.47646934 -61.65721814 85.86291481 -62.8125 88.25 C-63.60761184 89.87033787 -64.40382435 91.49013612 -65.20117188 93.109375 C-67.14691226 97.06678327 -69.07743546 101.03128428 -71 105 C-74.65316671 103.75023244 -75.78065836 103.32901247 -78 100 C-77.91784999 93.7416626 -75.73457826 90.74478564 -71.6875 86.375 C-70.88542114 85.47430786 -70.88542114 85.47430786 -70.06713867 84.55541992 C-68.39491172 82.68746779 -66.70185386 80.84097132 -65 79 C-64.4730957 78.42878418 -63.94619141 77.85756836 -63.40332031 77.26904297 C-61.37099709 75.06981088 -59.33624221 72.87298573 -57.29174805 70.68505859 C-53.44223765 66.54622033 -49.88121422 62.22151338 -46.34375 57.8125 C-43.18196559 54.01835871 -39.81454636 50.43716235 -36.43920898 46.83374023 C-33.34219916 43.508452 -30.40378316 40.11280061 -27.5625 36.5625 C-24.03568038 32.16359407 -20.29894799 28.03932368 -16.4375 23.9375 C-5.74729931 13.39872764 -5.74729931 13.39872764 0 0 Z " fill="#FACFA2" transform="translate(221,299)"/>
<path d="M0 0 C3.87076121 1.06219246 6.1382035 3.33557276 8.87356567 6.17218018 C9.43792831 6.73126068 10.00229095 7.29034119 10.58375549 7.86636353 C11.76379063 9.04534287 12.93397307 10.23425945 14.09451294 11.43243408 C15.87069959 13.25918746 17.68367467 15.04230405 19.50442505 16.82452393 C20.65071399 17.97969076 21.79467947 19.13716884 22.93606567 20.29718018 C23.47655045 20.82663239 24.01703522 21.35608459 24.57389832 21.90158081 C27.30038967 24.76838142 28.27859116 26.37628984 28.72097778 30.35333252 C28.17578406 34.67435465 27.00735913 37.29724648 23.55715942 40.00811768 C20.00214049 40.99562294 17.87604318 40.64430141 14.30715942 39.63311768 C8.16407059 35.10601866 2.8184894 29.3272228 -2.56784058 23.94561768 C-3.32580933 23.19989502 -4.08377808 22.45417236 -4.86471558 21.68585205 C-5.5891687 20.96333252 -6.31362183 20.24081299 -7.06002808 19.49639893 C-7.71084351 18.84969238 -8.36165894 18.20298584 -9.03219604 17.53668213 C-11.81212517 14.35010357 -12.70796053 12.46471487 -12.63034058 8.19561768 C-10.66867962 0.74130605 -7.13137965 -0.99800937 0 0 Z " fill="#F2A66A" transform="translate(304.6928405761719,389.36688232421875)"/>
<path d="M0 0 C2.1953125 0.44140625 2.1953125 0.44140625 5.2578125 2.44140625 C7.75137027 6.30239892 8.02035951 9.02742576 7.1953125 13.44140625 C5.57227183 17.67731244 3.6180397 21.70586939 1.54345703 25.7331543 C0.57248462 27.6246748 -0.36539248 29.5301307 -1.30078125 31.43945312 C-1.91735843 32.66372543 -2.53578792 33.88706698 -3.15625 35.109375 C-3.71135254 36.20531982 -4.26645508 37.30126465 -4.83837891 38.43041992 C-7.17987183 42.01592182 -9.33985126 43.93997603 -12.8046875 46.44140625 C-16.80585267 47.17631414 -18.22247724 46.82954643 -21.6171875 44.56640625 C-24.3459749 41.91558421 -24.72238224 40.99099296 -25.2890625 37.20703125 C-25.20406949 30.93454709 -21.87096095 25.53382311 -19.04296875 20.09472656 C-18.05424141 18.19054713 -17.09193809 16.27470062 -16.1328125 14.35546875 C-8.61620139 -0.44076278 -8.61620139 -0.44076278 0 0 Z " fill="#FBE1BF" transform="translate(73.8046875,299.55859375)"/>
<path d="M0 0 C1.670625 0.061875 1.670625 0.061875 3.375 0.125 C3.705 0.785 4.035 1.445 4.375 2.125 C4.045 2.785 3.715 3.445 3.375 4.125 C3.2695009 6.31425218 3.22891646 8.50672451 3.21728516 10.69848633 C3.21220444 11.37349686 3.20712372 12.04850739 3.20188904 12.74397278 C3.19117981 14.21175141 3.18256179 15.67954642 3.17576981 17.1473484 C3.16398708 19.47191029 3.14453522 21.79628586 3.12265015 24.12077332 C3.06101856 30.7305988 3.00701763 37.34040623 2.97363281 43.95043945 C2.95266771 47.99238685 2.91734779 52.03399627 2.87287521 56.07575035 C2.858727 57.61504826 2.84999542 59.15440598 2.84682083 60.69376564 C2.84190271 62.85064575 2.81872265 65.00663211 2.79150391 67.16333008 C2.78341705 68.38973709 2.7753302 69.6161441 2.76699829 70.87971497 C2.33787441 74.43235622 1.52485669 76.29138518 -0.625 79.125 C-3.71388522 81.18425681 -4.33435927 81.3640374 -7.8125 81.25 C-9.070625 81.20875 -10.32875 81.1675 -11.625 81.125 C-11.30059433 80.44070923 -10.97618866 79.75641846 -10.64195251 79.0513916 C-9.4563312 75.63963715 -9.36662704 72.91333127 -9.35375977 69.30273438 C-9.34591965 68.30419182 -9.34591965 68.30419182 -9.33792114 67.28547668 C-9.32771903 65.84722741 -9.32190737 64.4089416 -9.32003975 62.97065735 C-9.31636305 60.69197504 -9.29960239 58.41372288 -9.27928162 56.13513184 C-9.22398644 49.65934245 -9.19317221 43.18349109 -9.16870117 36.70751953 C-9.15280806 32.73994105 -9.1225754 28.77267073 -9.08393669 24.80525208 C-9.07230676 23.29664892 -9.06635652 21.78799063 -9.06625557 20.27934265 C-9.06606305 18.16832356 -9.04776505 16.05815263 -9.02563477 13.94726562 C-9.02056412 12.74767212 -9.01549347 11.54807861 -9.01026917 10.31213379 C-8.32786725 4.66697347 -5.9454539 0.20501565 0 0 Z " fill="#F8CDA0" transform="translate(297.625,143.875)"/>
<path d="M0 0 C0 3 0 3 -1 5 C-1.09529197 7.22011374 -1.12514757 9.44312549 -1.12597656 11.6652832 C-1.1278447 12.3500473 -1.12971283 13.0348114 -1.13163757 13.74032593 C-1.13564462 15.22939489 -1.13771669 16.71847002 -1.13809967 18.20754433 C-1.14151214 21.37395292 -1.16287163 24.54015561 -1.18333054 27.70649242 C-1.2213657 33.60375324 -1.25261577 39.50079594 -1.25048828 45.39819336 C-1.24970092 49.49863409 -1.27307549 53.59832374 -1.3123703 57.69856834 C-1.32282984 59.26020111 -1.32435459 60.82192059 -1.31671906 62.38356972 C-1.3070876 64.57204913 -1.32829224 66.75825868 -1.35644531 68.9465332 C-1.36009094 70.19070511 -1.36373657 71.43487701 -1.36749268 72.7167511 C-2.17090375 76.88713525 -3.72624127 78.38224312 -7 81 C-9.45703125 81.48828125 -9.45703125 81.48828125 -11.8125 81.3125 C-12.60269531 81.26738281 -13.39289063 81.22226563 -14.20703125 81.17578125 C-14.79871094 81.11777344 -15.39039063 81.05976563 -16 81 C-15.01 80.505 -15.01 80.505 -14 80 C-12.85546166 76.04444217 -12.86983202 72.16587292 -12.8581543 68.07006836 C-12.85294266 67.05448601 -12.85294266 67.05448601 -12.84762573 66.01838684 C-12.8403024 64.55556487 -12.83493889 63.09273203 -12.83133507 61.62989616 C-12.82413771 59.31376618 -12.80844953 56.99784415 -12.78999329 54.68177795 C-12.73765883 48.09932192 -12.68951131 41.51698611 -12.67407227 34.93432617 C-12.66399618 30.90182165 -12.63469132 26.86985063 -12.59275246 22.83755684 C-12.58044158 21.30301508 -12.57532138 19.76839804 -12.57755089 18.23380852 C-12.57990181 16.08880344 -12.55776064 13.94533459 -12.5300293 11.80053711 C-12.52416306 10.5809581 -12.51829681 9.36137909 -12.51225281 8.10484314 C-11.90363977 4.41594581 -10.90276816 3.27221492 -8 1 C-5.29120665 -0.35439668 -2.99066732 -0.06501451 0 0 Z " fill="#FDD1A3" transform="translate(233,144)"/>
<path d="M0 0 C4.90698397 4.04826178 4.90698397 4.04826178 5.32263184 8.30116272 C4.97974971 12.23216097 4.11522654 14.61785116 2.33789062 18.11889648 C1.75728882 19.27957138 1.17668701 20.44024628 0.57849121 21.63609314 C-0.06195515 22.88124806 -0.70270936 24.12624468 -1.34375 25.37109375 C-1.9951612 26.66084594 -2.64533008 27.95122626 -3.29431152 29.24220276 C-4.99830742 32.62358243 -6.71895508 35.99620993 -8.44329834 39.36724854 C-10.20287203 42.81454131 -11.94644235 46.26990525 -13.69140625 49.72460938 C-17.1120571 56.49103991 -20.5503529 63.24829784 -24 70 C-24.66 70 -25.32 70 -26 70 C-28.34952031 62.95143907 -27.75544069 55.86015378 -24.73681641 49.12719727 C-23.71618331 47.09447119 -22.66989711 45.07447208 -21.6015625 43.06640625 C-21.05140472 41.98544174 -20.50124695 40.90447723 -19.93441772 39.79075623 C-18.18705258 36.36924664 -16.40718855 32.96597837 -14.625 29.5625 C-12.85781137 26.13039061 -11.09731546 22.69490335 -9.33700562 19.25926208 C-8.24306827 17.13058522 -7.14369605 15.00469034 -6.03823853 12.88197327 C-5.53787079 11.92004562 -5.03750305 10.95811798 -4.52197266 9.96704102 C-4.08229156 9.1260939 -3.64261047 8.28514679 -3.18960571 7.41871643 C-1.99344716 4.98667671 -0.97284467 2.52868068 0 0 Z " fill="#FBCFA2" transform="translate(168,270)"/>
<path d="M0 0 C0 3 0 3 -1 5 C-1.11982257 6.87844908 -1.17729161 8.76100831 -1.20532227 10.64306641 C-1.22526749 11.82413971 -1.24521271 13.00521301 -1.26576233 14.22207642 C-1.29083107 16.14242203 -1.29083107 16.14242203 -1.31640625 18.1015625 C-1.33718735 19.40829926 -1.35796844 20.71503601 -1.37937927 22.06137085 C-1.43459294 25.536689 -1.48400525 29.01206653 -1.53222656 32.48748779 C-1.58244677 36.033379 -1.63813012 39.5791839 -1.69335938 43.125 C-1.80093228 50.0832585 -1.90237917 57.04159496 -2 64 C-7.41986839 64.36132456 -7.41986839 64.36132456 -9.85548401 62.84434509 C-11.43863038 60.2931634 -11.34950692 58.4853879 -11.31225586 55.49047852 C-11.30491928 54.36243301 -11.2975827 53.23438751 -11.2900238 52.07215881 C-11.26521439 50.85338547 -11.24040497 49.63461212 -11.21484375 48.37890625 C-11.19788956 47.12746323 -11.18093536 45.8760202 -11.16346741 44.58665466 C-11.12291688 41.93743266 -11.07595593 39.28920807 -11.01879883 36.64038086 C-10.94684616 33.24986535 -10.90646206 29.85982415 -10.87511349 26.46872044 C-10.84017362 23.23011569 -10.77599639 19.99210594 -10.71484375 16.75390625 C-10.70420395 15.53715714 -10.69356415 14.32040802 -10.68260193 13.06678772 C-10.65320023 11.93559006 -10.62379852 10.8043924 -10.59350586 9.63891602 C-10.5755748 8.6442482 -10.55764374 7.64958038 -10.53916931 6.62477112 C-9.30527001 0.61793212 -5.63444971 -0.5122227 0 0 Z " fill="#FCD1A3" transform="translate(199,103)"/>
<path d="M0 0 C3.78889043 2.40607333 3.78889043 2.40607333 4.67626953 4.90258789 C5.01086069 14.1659544 0.16680595 21.55482443 -4.125 29.4375 C-4.89509915 30.88768039 -5.6633427 32.33884776 -6.4296875 33.79101562 C-8.26094937 37.25075917 -10.12240674 40.69309126 -11.99328613 44.13153076 C-12.93074491 45.87146199 -13.84288868 47.62496728 -14.75292969 49.37939453 C-15.26500977 50.3589209 -15.77708984 51.33844727 -16.3046875 52.34765625 C-16.73507324 53.18433838 -17.16545898 54.02102051 -17.60888672 54.88305664 C-19.15030557 57.22872931 -20.6339049 58.51088014 -23 60 C-25.86747201 60.5518531 -28.0304748 60.28737341 -31 60 C-31.66 59.01 -32.32 58.02 -33 57 C-31.96101563 56.38511719 -30.92203125 55.77023437 -29.8515625 55.13671875 C-25.00722354 51.65614272 -22.93149845 47.07957257 -20.375 41.8125 C-19.87572998 40.81959961 -19.37645996 39.82669922 -18.86206055 38.80371094 C-17.79239811 36.67134161 -16.73071604 34.53495393 -15.67626953 32.39501953 C-13.92867916 28.85555088 -12.15334673 25.33067218 -10.37109375 21.80859375 C-8.07930007 17.26696356 -5.78993262 12.72424354 -3.51953125 8.171875 C-3.05651611 7.2447168 -2.59350098 6.31755859 -2.11645508 5.36230469 C-0.91250479 2.93661794 -0.91250479 2.93661794 0 0 Z " fill="#FACFA2" transform="translate(115,301)"/>
<path d="M0 0 C4.27491243 1.24849568 7.08433915 4.49475953 10.11328125 7.6171875 C10.71914063 8.21144531 11.325 8.80570312 11.94921875 9.41796875 C13.35461009 10.80026681 14.73670218 12.20619395 16.11328125 13.6171875 C14.52660547 17.52004517 11.97977644 19.95239732 8.98828125 22.8671875 C8.07820313 23.75921875 7.168125 24.65125 6.23046875 25.5703125 C5.53179687 26.24578125 4.833125 26.92125 4.11328125 27.6171875 C0.26078136 26.03667472 -2.17575891 23.56274196 -5.07421875 20.6171875 C-5.95464844 19.7303125 -6.83507812 18.8434375 -7.7421875 17.9296875 C-10.86306416 14.56437059 -11.30697981 12.28951995 -11.22265625 7.66015625 C-10.88671875 5.6171875 -10.88671875 5.6171875 -8.88671875 2.6171875 C-5.81789372 0.57130415 -3.71844163 -0.23809231 0 0 Z " fill="#F2A66A" transform="translate(333.88671875,322.3828125)"/>
<path d="M0 0 C3.875 1.75 3.875 1.75 5 4 C6.13595058 11.71887728 2.80125135 17.58840225 -0.65185547 24.29174805 C-1.62282788 26.18326855 -2.56070498 28.08872445 -3.49609375 29.99804688 C-4.11267093 31.22231918 -4.73110042 32.44566073 -5.3515625 33.66796875 C-5.90666504 34.76391357 -6.46176758 35.8598584 -7.03369141 36.98901367 C-9.37471246 40.573793 -11.5381182 42.49613937 -15 45 C-18.0625 45.625 -18.0625 45.625 -21 45 C-23.875 42.5 -23.875 42.5 -26 40 C-24.80632813 39.56558594 -23.61265625 39.13117188 -22.3828125 38.68359375 C-16.55476085 35.75673646 -14.57845304 30.74509311 -11.875 25.0625 C-11.10687988 23.51937134 -11.10687988 23.51937134 -10.32324219 21.94506836 C-8.85440876 18.97584637 -7.42036761 15.99265732 -6 13 C-5.6297168 12.22527344 -5.25943359 11.45054687 -4.87792969 10.65234375 C-3.19923918 7.12424846 -1.5664035 3.57936939 0 0 Z " fill="#F9CEA1" transform="translate(76,301)"/>
<path d="M0 0 C2.80221765 1.28064016 4.8760503 2.61913806 7.06860352 4.77807617 C7.63922012 5.33593307 8.20983673 5.89378998 8.79774475 6.46855164 C9.40202805 7.07060928 10.00631134 7.67266693 10.62890625 8.29296875 C11.25981674 8.91722244 11.89072723 9.54147614 12.54075623 10.18464661 C13.87216993 11.50594833 15.20089308 12.82996599 16.52709961 14.15649414 C18.54837769 16.17340818 20.58507959 18.17379714 22.62304688 20.17382812 C23.91764688 21.46255774 25.21129822 22.75224118 26.50390625 24.04296875 C27.11021378 24.63490524 27.7165213 25.22684174 28.34120178 25.8367157 C32.94053503 30.48592148 35.81968314 34.69419098 36.1875 41.4375 C36.0946875 42.7059375 36.0946875 42.7059375 36 44 C29.07167465 38.1733114 22.54955853 31.98161898 16.08178711 25.65161133 C14.73181022 24.33852173 13.37297676 23.03447853 12.00561523 21.73950195 C10.01425087 19.85162844 8.05402392 17.93575651 6.09765625 16.01171875 C5.17908592 15.15812019 5.17908592 15.15812019 4.24195862 14.28727722 C0.91819192 10.94833392 -0.36710152 8.85859459 -0.38110352 4.06176758 C-0.28443376 2.70533884 -0.16796907 1.34945558 0 0 Z " fill="#FEBC85" transform="translate(311,364)"/>
<path d="M0 0 C2.3431213 0.25561323 4.67843403 0.59270772 7 1 C9.09182531 5.18365063 8.42935408 10.44407619 8 15 C5.85559814 19.4476483 3.10339074 22.26440617 -1 25 C-1.99 25 -2.98 25 -4 25 C-4.33 25.66 -4.66 26.32 -5 27 C-7.97 24.03 -10.94 21.06 -14 18 C-10 14 -10 14 -7 11.8125 C-3.15177523 8.70657239 -1.68040517 4.53709396 0 0 Z " fill="#E59856" transform="translate(347,426)"/>
<path d="M0 0 C4.97760132 2.20797932 8.26811593 5.93853949 12.0625 9.75 C13.14241211 10.80574219 13.14241211 10.80574219 14.24414062 11.8828125 C22.51687246 20.14786306 22.51687246 20.14786306 23.29296875 26.3359375 C23.1953125 28.22395833 23.09765625 30.11197917 23 32 C19.07671257 31.44597346 17.27433386 29.64837216 14.5234375 26.88671875 C13.688125 26.05076172 12.8528125 25.21480469 11.9921875 24.35351562 C11.12851562 23.47373047 10.26484375 22.59394531 9.375 21.6875 C8.06789063 20.38522461 8.06789063 20.38522461 6.734375 19.05664062 C-0.68386734 11.57523987 -0.68386734 11.57523987 -2 8 C-1.44444444 1.44444444 -1.44444444 1.44444444 0 0 Z " fill="#F7B681" transform="translate(294,393)"/>
<path d="M0 0 C3.25822291 1.10178605 5.05695478 3.08450561 7.16015625 5.73046875 C5.57348047 9.63332642 3.02665144 12.06567857 0.03515625 14.98046875 C-0.87492187 15.8725 -1.785 16.76453125 -2.72265625 17.68359375 C-3.77066406 18.69679688 -3.77066406 18.69679688 -4.83984375 19.73046875 C-9.00771033 17.86150963 -10.73734892 15.85758823 -12.83984375 11.73046875 C-12.91561045 7.41176706 -12.23372596 5.32129207 -9.83984375 1.73046875 C-6.1544572 -0.72645561 -4.2669507 -0.71946915 0 0 Z " fill="#EFA469" transform="translate(366.83984375,306.26953125)"/>
<path d="M0 0 C3.91339178 0.52810477 5.98429509 1.45019836 8.875 4.125 C9.89207031 5.05892578 9.89207031 5.05892578 10.9296875 6.01171875 C14.00127122 8.96159821 17.03066103 11.94714837 20 15 C18.64062915 17.8605891 17.35479531 19.85927699 15 22 C11.14750011 20.41948722 8.71095984 17.94555446 5.8125 15 C4.93207031 14.113125 4.05164063 13.22625 3.14453125 12.3125 C-0.66555713 8.20398939 -0.08734191 5.41519864 0 0 Z " fill="#FAB983" transform="translate(323,328)"/>
<path d="M0 0 C3.875 1.75 3.875 1.75 5 4 C5.68571429 10.97142857 5.68571429 10.97142857 3 15 C-0.09386812 17.06257875 -2.18941348 17.78043158 -5.9296875 17.57421875 C-9.75591242 16.51298278 -12.31681007 13.81734943 -15 11 C-13.74869504 8.49739008 -12.82641684 8.31277706 -10.3125 7.1875 C-6.29779063 5.2705667 -3.29948609 2.96953749 0 0 Z " fill="#EFA469" transform="translate(382,370)"/>
<path d="M0 0 C8.2038835 3.15533981 8.2038835 3.15533981 11 7 C10.91773794 9.71464802 10.23959034 10.73165881 8.4375 12.75 C7.7259375 13.36875 7.7259375 13.36875 7 14 C2.77825859 12.49223521 1.11282476 9.84835938 -1 6 C-1.3125 3.1875 -1.3125 3.1875 -1 1 C-0.67 0.67 -0.34 0.34 0 0 Z " fill="#F1B27E" transform="translate(355,312)"/>
<path d="M0 0 C2.60188256 3.31964326 3 4.69316041 3 9 C-0.48472283 9.42670076 -3.0186845 9.64789556 -6.0234375 7.6640625 C-7.74896747 6.16390788 -9.40059768 4.63343216 -11 3 C-10 1 -10 1 -7.75 -0.1875 C-4.57749985 -1.12482959 -3.07568797 -1.21408736 0 0 Z " fill="#F9B882" transform="translate(378,378)"/>
<path d="M0 0 C1.65 1.65 3.3 3.3 5 5 C2.06497405 6.00736628 -0.87339461 7.00460504 -3.8125 8 C-4.64587891 8.28617187 -5.47925781 8.57234375 -6.33789062 8.8671875 C-7.14033203 9.13789063 -7.94277344 9.40859375 -8.76953125 9.6875 C-9.87711792 10.06455078 -9.87711792 10.06455078 -11.00708008 10.44921875 C-13 11 -13 11 -16 11 C-15 8 -15 8 -12.12890625 6.39453125 C-10.95199219 5.87246094 -9.77507812 5.35039062 -8.5625 4.8125 C-7.38816406 4.28269531 -6.21382813 3.75289063 -5.00390625 3.20703125 C-2 2 -2 2 0 2 C0 1.34 0 0.68 0 0 Z " fill="#96DD97" transform="translate(330,462)"/>
<path d="M0 0 C0.33 0.66 0.66 1.32 1 2 C-0.4375 4.4375 -0.4375 4.4375 -3 7 C-5.99304558 7.73151889 -8.92553213 7.92773687 -12 8 C-9.49771934 2.561253 -6.28562978 -0.71835769 0 0 Z " fill="#E2A06B" transform="translate(406,351)"/>
</svg>